<svg xmlns="http://www.w3.org/2000/svg" width="1920" height="360" viewBox="0 0 1920 360" role="img" aria-label="FARO — placa de fundo, direção C"><title>FARO — placa de fundo, direção C</title><rect width="1920" height="360" fill="#06090c"/><path d="M0 0V360" stroke="rgb(28 38 44 / 0.110)" stroke-width="1"/><path d="M36 0V360" stroke="rgb(28 38 44 / 0.110)" stroke-width="1"/><path d="M72 0V360" stroke="rgb(28 38 44 / 0.110)" stroke-width="1"/><path d="M108 0V360" stroke="rgb(28 38 44 / 0.110)" stroke-width="1"/><path d="M144 0V360" stroke="rgb(28 38 44 / 0.110)" stroke-width="1"/><path d="M180 0V360" stroke="rgb(28 38 44 / 0.110)" stroke-width="1"/><path d="M216 0V360" stroke="rgb(28 38 44 / 0.110)" stroke-width="1"/><path d="M252 0V360" stroke="rgb(28 38 44 / 0.110)" stroke-width="1"/><path d="M288 0V360" stroke="rgb(28 38 44 / 0.110)" stroke-width="1"/><path d="M324 0V360" stroke="rgb(28 38 44 / 0.110)" stroke-width="1"/><path d="M360 0V360" stroke="rgb(28 38 44 / 0.110)" stroke-width="1"/><path d="M396 0V360" stroke="rgb(28 38 44 / 0.110)" stroke-width="1"/><path d="M432 0V360" stroke="rgb(28 38 44 / 0.110)" stroke-width="1"/><path d="M468 0V360" stroke="rgb(28 38 44 / 0.110)" stroke-width="1"/><path d="M504 0V360" stroke="rgb(28 38 44 / 0.110)" stroke-width="1"/><path d="M540 0V360" stroke="rgb(28 38 44 / 0.110)" stroke-width="1"/><path d="M576 0V360" stroke="rgb(28 38 44 / 0.110)" stroke-width="1"/><path d="M612 0V360" stroke="rgb(28 38 44 / 0.110)" stroke-width="1"/><path d="M648 0V360" stroke="rgb(28 38 44 / 0.110)" stroke-width="1"/><path d="M684 0V360" stroke="rgb(28 38 44 / 0.110)" stroke-width="1"/><path d="M720 0V360" stroke="rgb(28 38 44 / 0.110)" stroke-width="1"/><path d="M756 0V360" stroke="rgb(28 38 44 / 0.110)" stroke-width="1"/><path d="M792 0V360" stroke="rgb(28 38 44 / 0.110)" stroke-width="1"/><path d="M828 0V360" stroke="rgb(28 38 44 / 0.110)" stroke-width="1"/><path d="M864 0V360" stroke="rgb(28 38 44 / 0.110)" stroke-width="1"/><path d="M900 0V360" stroke="rgb(28 38 44 / 0.110)" stroke-width="1"/><path d="M936 0V360" stroke="rgb(28 38 44 / 0.110)" stroke-width="1"/><path d="M972 0V360" stroke="rgb(28 38 44 / 0.110)" stroke-width="1"/><path d="M1008 0V360" stroke="rgb(28 38 44 / 0.110)" stroke-width="1"/><path d="M1044 0V360" stroke="rgb(28 38 44 / 0.110)" stroke-width="1"/><path d="M1080 0V360" stroke="rgb(28 38 44 / 0.110)" stroke-width="1"/><path d="M1116 0V360" stroke="rgb(28 38 44 / 0.110)" stroke-width="1"/><path d="M1152 0V360" stroke="rgb(28 38 44 / 0.110)" stroke-width="1"/><path d="M1188 0V360" stroke="rgb(28 38 44 / 0.110)" stroke-width="1"/><path d="M1224 0V360" stroke="rgb(28 38 44 / 0.110)" stroke-width="1"/><path d="M1260 0V360" stroke="rgb(28 38 44 / 0.110)" stroke-width="1"/><path d="M1296 0V360" stroke="rgb(28 38 44 / 0.110)" stroke-width="1"/><path d="M1332 0V360" stroke="rgb(28 38 44 / 0.110)" stroke-width="1"/><path d="M1368 0V360" stroke="rgb(28 38 44 / 0.110)" stroke-width="1"/><path d="M1404 0V360" stroke="rgb(28 38 44 / 0.110)" stroke-width="1"/><path d="M1440 0V360" stroke="rgb(28 38 44 / 0.110)" stroke-width="1"/><path d="M1476 0V360" stroke="rgb(28 38 44 / 0.110)" stroke-width="1"/><path d="M1512 0V360" stroke="rgb(28 38 44 / 0.110)" stroke-width="1"/><path d="M1548 0V360" stroke="rgb(28 38 44 / 0.110)" stroke-width="1"/><path d="M1584 0V360" stroke="rgb(28 38 44 / 0.110)" stroke-width="1"/><path d="M1620 0V360" stroke="rgb(28 38 44 / 0.110)" stroke-width="1"/><path d="M1656 0V360" stroke="rgb(28 38 44 / 0.110)" stroke-width="1"/><path d="M1692 0V360" stroke="rgb(28 38 44 / 0.110)" stroke-width="1"/><path d="M1728 0V360" stroke="rgb(28 38 44 / 0.110)" stroke-width="1"/><path d="M1764 0V360" stroke="rgb(28 38 44 / 0.110)" stroke-width="1"/><path d="M1800 0V360" stroke="rgb(28 38 44 / 0.110)" stroke-width="1"/><path d="M1836 0V360" stroke="rgb(28 38 44 / 0.110)" stroke-width="1"/><path d="M1872 0V360" stroke="rgb(28 38 44 / 0.110)" stroke-width="1"/><path d="M1908 0V360" stroke="rgb(28 38 44 / 0.110)" stroke-width="1"/><path d="M582 132H596" stroke="rgb(112 132 144 / 0.055)" stroke-width="1"/><path d="M798 202H812" stroke="rgb(112 132 144 / 0.055)" stroke-width="1"/><path d="M1410 188H1428" stroke="rgb(112 132 144 / 0.055)" stroke-width="1"/><path d="M150 202H164" stroke="rgb(112 132 144 / 0.055)" stroke-width="1"/><path d="M870 230H880" stroke="rgb(112 132 144 / 0.055)" stroke-width="1"/><path d="M1014 216H1024" stroke="rgb(112 132 144 / 0.055)" stroke-width="1"/><path d="M1734 216H1744" stroke="rgb(112 132 144 / 0.055)" stroke-width="1"/><path d="M186 202H200" stroke="rgb(112 132 144 / 0.055)" stroke-width="1"/><path d="M1698 76H1716" stroke="rgb(112 132 144 / 0.055)" stroke-width="1"/><path d="M1410 132H1424" stroke="rgb(112 132 144 / 0.055)" stroke-width="1"/><path d="M1374 202H1388" stroke="rgb(112 132 144 / 0.055)" stroke-width="1"/><path d="M222 230H228" stroke="rgb(112 132 144 / 0.055)" stroke-width="1"/><path d="M1482 272H1488" stroke="rgb(112 132 144 / 0.055)" stroke-width="1"/><path d="M798 188H812" stroke="rgb(112 132 144 / 0.055)" stroke-width="1"/><path d="M1158 286H1172" stroke="rgb(112 132 144 / 0.055)" stroke-width="1"/><path d="M1518 160H1524" stroke="rgb(112 132 144 / 0.055)" stroke-width="1"/><path d="M762 160H768" stroke="rgb(112 132 144 / 0.055)" stroke-width="1"/><path d="M1590 202H1600" stroke="rgb(112 132 144 / 0.055)" stroke-width="1"/><path d="M1698 202H1716" stroke="rgb(112 132 144 / 0.055)" stroke-width="1"/><path d="M366 90H380" stroke="rgb(112 132 144 / 0.055)" stroke-width="1"/><path d="M582 272H596" stroke="rgb(112 132 144 / 0.055)" stroke-width="1"/><path d="M1878 62H1896" stroke="rgb(112 132 144 / 0.055)" stroke-width="1"/><path d="M798 132H804" stroke="rgb(112 132 144 / 0.055)" stroke-width="1"/><path d="M1230 286H1240" stroke="rgb(112 132 144 / 0.055)" stroke-width="1"/><path d="M186 62H192" stroke="rgb(112 132 144 / 0.055)" stroke-width="1"/><path d="M114 174H132" stroke="rgb(112 132 144 / 0.055)" stroke-width="1"/><path d="M366 216H380" stroke="rgb(112 132 144 / 0.055)" stroke-width="1"/><path d="M1806 104H1820" stroke="rgb(112 132 144 / 0.055)" stroke-width="1"/><path d="M1266 104H1284" stroke="rgb(112 132 144 / 0.055)" stroke-width="1"/><path d="M1158 90H1176" stroke="rgb(112 132 144 / 0.055)" stroke-width="1"/><path d="M870 202H884" stroke="rgb(112 132 144 / 0.055)" stroke-width="1"/><path d="M1374 104H1392" stroke="rgb(112 132 144 / 0.055)" stroke-width="1"/><path d="M1806 118H1812" stroke="rgb(112 132 144 / 0.055)" stroke-width="1"/><path d="M1662 146H1672" stroke="rgb(112 132 144 / 0.055)" stroke-width="1"/><path d="M6 272H16" stroke="rgb(112 132 144 / 0.055)" stroke-width="1"/><path d="M402 20H416" stroke="rgb(112 132 144 / 0.055)" stroke-width="1"/><path d="M942 48H948" stroke="rgb(112 132 144 / 0.055)" stroke-width="1"/><path d="M870 188H884" stroke="rgb(112 132 144 / 0.055)" stroke-width="1"/><path d="M78 216H96" stroke="rgb(112 132 144 / 0.055)" stroke-width="1"/><path d="M618 48H624" stroke="rgb(112 132 144 / 0.055)" stroke-width="1"/><path d="M1590 132H1600" stroke="rgb(112 132 144 / 0.055)" stroke-width="1"/><path d="M1194 314H1204" stroke="rgb(112 132 144 / 0.055)" stroke-width="1"/><path d="M1410 244H1416" stroke="rgb(112 132 144 / 0.055)" stroke-width="1"/><path d="M1446 90H1460" stroke="rgb(112 132 144 / 0.055)" stroke-width="1"/><path d="M1230 62H1244" stroke="rgb(112 132 144 / 0.055)" stroke-width="1"/><path d="M1086 48H1104" stroke="rgb(112 132 144 / 0.055)" stroke-width="1"/><path d="M582 62H592" stroke="rgb(112 132 144 / 0.055)" stroke-width="1"/><path d="M618 48H624" stroke="rgb(112 132 144 / 0.055)" stroke-width="1"/><path d="M1698 90H1712" stroke="rgb(112 132 144 / 0.055)" stroke-width="1"/><path d="M114 174H128" stroke="rgb(112 132 144 / 0.055)" stroke-width="1"/><path d="M1626 314H1640" stroke="rgb(112 132 144 / 0.055)" stroke-width="1"/><path d="M1086 314H1104" stroke="rgb(112 132 144 / 0.055)" stroke-width="1"/><path d="M1626 76H1640" stroke="rgb(112 132 144 / 0.055)" stroke-width="1"/><path d="M438 118H448" stroke="rgb(112 132 144 / 0.055)" stroke-width="1"/><path d="M1410 244H1416" stroke="rgb(112 132 144 / 0.055)" stroke-width="1"/><path d="M1266 272H1280" stroke="rgb(112 132 144 / 0.055)" stroke-width="1"/><path d="M906 202H916" stroke="rgb(112 132 144 / 0.055)" stroke-width="1"/><path d="M1338 216H1356" stroke="rgb(112 132 144 / 0.055)" stroke-width="1"/><path d="M1266 34H1280" stroke="rgb(112 132 144 / 0.055)" stroke-width="1"/><path d="M546 104H560" stroke="rgb(112 132 144 / 0.055)" stroke-width="1"/><path d="M978 146H984" stroke="rgb(112 132 144 / 0.055)" stroke-width="1"/><path d="M582 300H596" stroke="rgb(112 132 144 / 0.055)" stroke-width="1"/><path d="M942 160H948" stroke="rgb(112 132 144 / 0.055)" stroke-width="1"/><path d="M618 258H628" stroke="rgb(112 132 144 / 0.055)" stroke-width="1"/><path d="M726 34H736" stroke="rgb(112 132 144 / 0.055)" stroke-width="1"/><path d="M654 188H668" stroke="rgb(112 132 144 / 0.055)" stroke-width="1"/><path d="M762 328H768" stroke="rgb(112 132 144 / 0.055)" stroke-width="1"/><path d="M834 34H844" stroke="rgb(112 132 144 / 0.055)" stroke-width="1"/><path d="M726 272H740" stroke="rgb(112 132 144 / 0.055)" stroke-width="1"/><path d="M1878 132H1888" stroke="rgb(112 132 144 / 0.055)" stroke-width="1"/><path d="M1194 188H1208" stroke="rgb(112 132 144 / 0.055)" stroke-width="1"/><path d="M1734 104H1744" stroke="rgb(112 132 144 / 0.055)" stroke-width="1"/><path d="M114 146H120" stroke="rgb(112 132 144 / 0.055)" stroke-width="1"/><path d="M438 104H452" stroke="rgb(112 132 144 / 0.055)" stroke-width="1"/><path d="M258 244H276" stroke="rgb(112 132 144 / 0.055)" stroke-width="1"/><path d="M1626 216H1636" stroke="rgb(112 132 144 / 0.055)" stroke-width="1"/><path d="M78 118H88" stroke="rgb(112 132 144 / 0.055)" stroke-width="1"/><path d="M1518 230H1528" stroke="rgb(112 132 144 / 0.055)" stroke-width="1"/><path d="M222 34H240" stroke="rgb(112 132 144 / 0.055)" stroke-width="1"/><path d="M114 286H120" stroke="rgb(112 132 144 / 0.055)" stroke-width="1"/><path d="M942 34H960" stroke="rgb(112 132 144 / 0.055)" stroke-width="1"/><path d="M186 132H204" stroke="rgb(112 132 144 / 0.055)" stroke-width="1"/><path d="M1734 132H1752" stroke="rgb(112 132 144 / 0.055)" stroke-width="1"/><path d="M546 62H560" stroke="rgb(112 132 144 / 0.055)" stroke-width="1"/><path d="M1050 118H1068" stroke="rgb(112 132 144 / 0.055)" stroke-width="1"/><path d="M1194 328H1208" stroke="rgb(112 132 144 / 0.055)" stroke-width="1"/><path d="M366 244H380" stroke="rgb(112 132 144 / 0.055)" stroke-width="1"/><path d="M258 174H268" stroke="rgb(112 132 144 / 0.055)" stroke-width="1"/><path d="M726 132H740" stroke="rgb(112 132 144 / 0.055)" stroke-width="1"/><path d="M6 202H16" stroke="rgb(112 132 144 / 0.055)" stroke-width="1"/><path d="M1662 244H1676" stroke="rgb(112 132 144 / 0.055)" stroke-width="1"/><path d="M1086 244H1096" stroke="rgb(112 132 144 / 0.055)" stroke-width="1"/><path d="M1878 272H1884" stroke="rgb(112 132 144 / 0.055)" stroke-width="1"/><path d="M690 34H708" stroke="rgb(112 132 144 / 0.055)" stroke-width="1"/><path d="M438 272H448" stroke="rgb(112 132 144 / 0.055)" stroke-width="1"/><path d="M1878 216H1896" stroke="rgb(112 132 144 / 0.055)" stroke-width="1"/><path d="M366 258H384" stroke="rgb(112 132 144 / 0.055)" stroke-width="1"/><path d="M1158 314H1176" stroke="rgb(112 132 144 / 0.055)" stroke-width="1"/><path d="M1806 188H1820" stroke="rgb(112 132 144 / 0.055)" stroke-width="1"/><path d="M1770 90H1776" stroke="rgb(112 132 144 / 0.055)" stroke-width="1"/><path d="M1266 174H1280" stroke="rgb(112 132 144 / 0.055)" stroke-width="1"/><path d="M510 146H528" stroke="rgb(112 132 144 / 0.055)" stroke-width="1"/><path d="M1158 76H1176" stroke="rgb(112 132 144 / 0.055)" stroke-width="1"/><path d="M1158 104H1164" stroke="rgb(112 132 144 / 0.055)" stroke-width="1"/><path d="M726 160H732" stroke="rgb(112 132 144 / 0.055)" stroke-width="1"/><path d="M1446 174H1460" stroke="rgb(112 132 144 / 0.055)" stroke-width="1"/><path d="M1086 286H1092" stroke="rgb(112 132 144 / 0.055)" stroke-width="1"/><path d="M222 174H236" stroke="rgb(112 132 144 / 0.055)" stroke-width="1"/><path d="M1914 90H1920" stroke="rgb(112 132 144 / 0.055)" stroke-width="1"/><path d="M1662 160H1672" stroke="rgb(112 132 144 / 0.055)" stroke-width="1"/><path d="M1086 314H1104" stroke="rgb(112 132 144 / 0.055)" stroke-width="1"/><path d="M330 62H340" stroke="rgb(112 132 144 / 0.055)" stroke-width="1"/><path d="M1842 48H1856" stroke="rgb(112 132 144 / 0.055)" stroke-width="1"/><path d="M6 216H20" stroke="rgb(112 132 144 / 0.055)" stroke-width="1"/><path d="M1878 188H1896" stroke="rgb(112 132 144 / 0.055)" stroke-width="1"/><path d="M1122 230H1136" stroke="rgb(112 132 144 / 0.055)" stroke-width="1"/><path d="M1698 48H1716" stroke="rgb(112 132 144 / 0.055)" stroke-width="1"/><path d="M906 104H912" stroke="rgb(112 132 144 / 0.055)" stroke-width="1"/><path d="M618 300H624" stroke="rgb(112 132 144 / 0.055)" stroke-width="1"/><path d="M546 272H560" stroke="rgb(112 132 144 / 0.055)" stroke-width="1"/><path d="M1078.9 0V360" stroke="rgb(46 211 163 / 0.280)" stroke-width="1.5"/><circle cx="1078.9" cy="245.8" r="4" fill="rgb(46 211 163 / 0.800)"/></svg>