<svg xmlns="http://www.w3.org/2000/svg" width="1920" height="360" viewBox="0 0 1920 360" role="img" aria-label="FARO — placa de fundo, direção C"><title>FARO — placa de fundo, direção C</title><rect width="1920" height="360" fill="#06090c"/><path d="M0 0V360" stroke="rgb(28 38 44 / 0.110)" stroke-width="1"/><path d="M36 0V360" stroke="rgb(28 38 44 / 0.110)" stroke-width="1"/><path d="M72 0V360" stroke="rgb(28 38 44 / 0.110)" stroke-width="1"/><path d="M108 0V360" stroke="rgb(28 38 44 / 0.110)" stroke-width="1"/><path d="M144 0V360" stroke="rgb(28 38 44 / 0.110)" stroke-width="1"/><path d="M180 0V360" stroke="rgb(28 38 44 / 0.110)" stroke-width="1"/><path d="M216 0V360" stroke="rgb(28 38 44 / 0.110)" stroke-width="1"/><path d="M252 0V360" stroke="rgb(28 38 44 / 0.110)" stroke-width="1"/><path d="M288 0V360" stroke="rgb(28 38 44 / 0.110)" stroke-width="1"/><path d="M324 0V360" stroke="rgb(28 38 44 / 0.110)" stroke-width="1"/><path d="M360 0V360" stroke="rgb(28 38 44 / 0.110)" stroke-width="1"/><path d="M396 0V360" stroke="rgb(28 38 44 / 0.110)" stroke-width="1"/><path d="M432 0V360" stroke="rgb(28 38 44 / 0.110)" stroke-width="1"/><path d="M468 0V360" stroke="rgb(28 38 44 / 0.110)" stroke-width="1"/><path d="M504 0V360" stroke="rgb(28 38 44 / 0.110)" stroke-width="1"/><path d="M540 0V360" stroke="rgb(28 38 44 / 0.110)" stroke-width="1"/><path d="M576 0V360" stroke="rgb(28 38 44 / 0.110)" stroke-width="1"/><path d="M612 0V360" stroke="rgb(28 38 44 / 0.110)" stroke-width="1"/><path d="M648 0V360" stroke="rgb(28 38 44 / 0.110)" stroke-width="1"/><path d="M684 0V360" stroke="rgb(28 38 44 / 0.110)" stroke-width="1"/><path d="M720 0V360" stroke="rgb(28 38 44 / 0.110)" stroke-width="1"/><path d="M756 0V360" stroke="rgb(28 38 44 / 0.110)" stroke-width="1"/><path d="M792 0V360" stroke="rgb(28 38 44 / 0.110)" stroke-width="1"/><path d="M828 0V360" stroke="rgb(28 38 44 / 0.110)" stroke-width="1"/><path d="M864 0V360" stroke="rgb(28 38 44 / 0.110)" stroke-width="1"/><path d="M900 0V360" stroke="rgb(28 38 44 / 0.110)" stroke-width="1"/><path d="M936 0V360" stroke="rgb(28 38 44 / 0.110)" stroke-width="1"/><path d="M972 0V360" stroke="rgb(28 38 44 / 0.110)" stroke-width="1"/><path d="M1008 0V360" stroke="rgb(28 38 44 / 0.110)" stroke-width="1"/><path d="M1044 0V360" stroke="rgb(28 38 44 / 0.110)" stroke-width="1"/><path d="M1080 0V360" stroke="rgb(28 38 44 / 0.110)" stroke-width="1"/><path d="M1116 0V360" stroke="rgb(28 38 44 / 0.110)" stroke-width="1"/><path d="M1152 0V360" stroke="rgb(28 38 44 / 0.110)" stroke-width="1"/><path d="M1188 0V360" stroke="rgb(28 38 44 / 0.110)" stroke-width="1"/><path d="M1224 0V360" stroke="rgb(28 38 44 / 0.110)" stroke-width="1"/><path d="M1260 0V360" stroke="rgb(28 38 44 / 0.110)" stroke-width="1"/><path d="M1296 0V360" stroke="rgb(28 38 44 / 0.110)" stroke-width="1"/><path d="M1332 0V360" stroke="rgb(28 38 44 / 0.110)" stroke-width="1"/><path d="M1368 0V360" stroke="rgb(28 38 44 / 0.110)" stroke-width="1"/><path d="M1404 0V360" stroke="rgb(28 38 44 / 0.110)" stroke-width="1"/><path d="M1440 0V360" stroke="rgb(28 38 44 / 0.110)" stroke-width="1"/><path d="M1476 0V360" stroke="rgb(28 38 44 / 0.110)" stroke-width="1"/><path d="M1512 0V360" stroke="rgb(28 38 44 / 0.110)" stroke-width="1"/><path d="M1548 0V360" stroke="rgb(28 38 44 / 0.110)" stroke-width="1"/><path d="M1584 0V360" stroke="rgb(28 38 44 / 0.110)" stroke-width="1"/><path d="M1620 0V360" stroke="rgb(28 38 44 / 0.110)" stroke-width="1"/><path d="M1656 0V360" stroke="rgb(28 38 44 / 0.110)" stroke-width="1"/><path d="M1692 0V360" stroke="rgb(28 38 44 / 0.110)" stroke-width="1"/><path d="M1728 0V360" stroke="rgb(28 38 44 / 0.110)" stroke-width="1"/><path d="M1764 0V360" stroke="rgb(28 38 44 / 0.110)" stroke-width="1"/><path d="M1800 0V360" stroke="rgb(28 38 44 / 0.110)" stroke-width="1"/><path d="M1836 0V360" stroke="rgb(28 38 44 / 0.110)" stroke-width="1"/><path d="M1872 0V360" stroke="rgb(28 38 44 / 0.110)" stroke-width="1"/><path d="M1908 0V360" stroke="rgb(28 38 44 / 0.110)" stroke-width="1"/><path d="M1014 216H1028" stroke="rgb(112 132 144 / 0.055)" stroke-width="1"/><path d="M1554 258H1560" stroke="rgb(112 132 144 / 0.055)" stroke-width="1"/><path d="M942 90H960" stroke="rgb(112 132 144 / 0.055)" stroke-width="1"/><path d="M1554 132H1572" stroke="rgb(112 132 144 / 0.055)" stroke-width="1"/><path d="M1266 174H1276" stroke="rgb(112 132 144 / 0.055)" stroke-width="1"/><path d="M798 118H804" stroke="rgb(112 132 144 / 0.055)" stroke-width="1"/><path d="M1842 104H1852" stroke="rgb(112 132 144 / 0.055)" stroke-width="1"/><path d="M834 174H852" stroke="rgb(112 132 144 / 0.055)" stroke-width="1"/><path d="M1158 90H1164" stroke="rgb(112 132 144 / 0.055)" stroke-width="1"/><path d="M1302 314H1312" stroke="rgb(112 132 144 / 0.055)" stroke-width="1"/><path d="M726 272H744" stroke="rgb(112 132 144 / 0.055)" stroke-width="1"/><path d="M1626 272H1640" stroke="rgb(112 132 144 / 0.055)" stroke-width="1"/><path d="M1266 244H1276" stroke="rgb(112 132 144 / 0.055)" stroke-width="1"/><path d="M1806 104H1824" stroke="rgb(112 132 144 / 0.055)" stroke-width="1"/><path d="M1230 202H1236" stroke="rgb(112 132 144 / 0.055)" stroke-width="1"/><path d="M1518 188H1528" stroke="rgb(112 132 144 / 0.055)" stroke-width="1"/><path d="M438 258H456" stroke="rgb(112 132 144 / 0.055)" stroke-width="1"/><path d="M1842 314H1860" stroke="rgb(112 132 144 / 0.055)" stroke-width="1"/><path d="M1374 34H1392" stroke="rgb(112 132 144 / 0.055)" stroke-width="1"/><path d="M6 272H24" stroke="rgb(112 132 144 / 0.055)" stroke-width="1"/><path d="M222 146H228" stroke="rgb(112 132 144 / 0.055)" stroke-width="1"/><path d="M690 314H704" stroke="rgb(112 132 144 / 0.055)" stroke-width="1"/><path d="M1338 328H1356" stroke="rgb(112 132 144 / 0.055)" stroke-width="1"/><path d="M6 244H12" stroke="rgb(112 132 144 / 0.055)" stroke-width="1"/><path d="M1266 300H1276" stroke="rgb(112 132 144 / 0.055)" stroke-width="1"/><path d="M654 34H664" stroke="rgb(112 132 144 / 0.055)" stroke-width="1"/><path d="M978 90H988" stroke="rgb(112 132 144 / 0.055)" stroke-width="1"/><path d="M1014 258H1024" stroke="rgb(112 132 144 / 0.055)" stroke-width="1"/><path d="M906 188H924" stroke="rgb(112 132 144 / 0.055)" stroke-width="1"/><path d="M1770 216H1784" stroke="rgb(112 132 144 / 0.055)" stroke-width="1"/><path d="M1266 300H1284" stroke="rgb(112 132 144 / 0.055)" stroke-width="1"/><path d="M222 76H232" stroke="rgb(112 132 144 / 0.055)" stroke-width="1"/><path d="M618 244H628" stroke="rgb(112 132 144 / 0.055)" stroke-width="1"/><path d="M1086 244H1092" stroke="rgb(112 132 144 / 0.055)" stroke-width="1"/><path d="M258 244H264" stroke="rgb(112 132 144 / 0.055)" stroke-width="1"/><path d="M114 216H120" stroke="rgb(112 132 144 / 0.055)" stroke-width="1"/><path d="M618 188H624" stroke="rgb(112 132 144 / 0.055)" stroke-width="1"/><path d="M1842 132H1852" stroke="rgb(112 132 144 / 0.055)" stroke-width="1"/><path d="M222 132H236" stroke="rgb(112 132 144 / 0.055)" stroke-width="1"/><path d="M366 132H384" stroke="rgb(112 132 144 / 0.055)" stroke-width="1"/><path d="M294 202H312" stroke="rgb(112 132 144 / 0.055)" stroke-width="1"/><path d="M654 286H668" stroke="rgb(112 132 144 / 0.055)" stroke-width="1"/><path d="M798 230H812" stroke="rgb(112 132 144 / 0.055)" stroke-width="1"/><path d="M1410 48H1428" stroke="rgb(112 132 144 / 0.055)" stroke-width="1"/><path d="M582 118H592" stroke="rgb(112 132 144 / 0.055)" stroke-width="1"/><path d="M1194 90H1200" stroke="rgb(112 132 144 / 0.055)" stroke-width="1"/><path d="M1878 272H1888" stroke="rgb(112 132 144 / 0.055)" stroke-width="1"/><path d="M1626 20H1644" stroke="rgb(112 132 144 / 0.055)" stroke-width="1"/><path d="M1122 76H1140" stroke="rgb(112 132 144 / 0.055)" stroke-width="1"/><path d="M1662 174H1676" stroke="rgb(112 132 144 / 0.055)" stroke-width="1"/><path d="M1518 300H1528" stroke="rgb(112 132 144 / 0.055)" stroke-width="1"/><path d="M1518 90H1536" stroke="rgb(112 132 144 / 0.055)" stroke-width="1"/><path d="M942 286H952" stroke="rgb(112 132 144 / 0.055)" stroke-width="1"/><path d="M582 160H596" stroke="rgb(112 132 144 / 0.055)" stroke-width="1"/><path d="M1734 188H1752" stroke="rgb(112 132 144 / 0.055)" stroke-width="1"/><path d="M402 20H416" stroke="rgb(112 132 144 / 0.055)" stroke-width="1"/><path d="M1590 244H1604" stroke="rgb(112 132 144 / 0.055)" stroke-width="1"/><path d="M798 132H816" stroke="rgb(112 132 144 / 0.055)" stroke-width="1"/><path d="M1158 90H1168" stroke="rgb(112 132 144 / 0.055)" stroke-width="1"/><path d="M510 300H516" stroke="rgb(112 132 144 / 0.055)" stroke-width="1"/><path d="M1518 300H1536" stroke="rgb(112 132 144 / 0.055)" stroke-width="1"/><path d="M1770 160H1776" stroke="rgb(112 132 144 / 0.055)" stroke-width="1"/><path d="M798 230H812" stroke="rgb(112 132 144 / 0.055)" stroke-width="1"/><path d="M1086 202H1100" stroke="rgb(112 132 144 / 0.055)" stroke-width="1"/><path d="M1338 146H1352" stroke="rgb(112 132 144 / 0.055)" stroke-width="1"/><path d="M762 20H772" stroke="rgb(112 132 144 / 0.055)" stroke-width="1"/><path d="M762 272H780" stroke="rgb(112 132 144 / 0.055)" stroke-width="1"/><path d="M942 188H952" stroke="rgb(112 132 144 / 0.055)" stroke-width="1"/><path d="M186 286H196" stroke="rgb(112 132 144 / 0.055)" stroke-width="1"/><path d="M1734 48H1740" stroke="rgb(112 132 144 / 0.055)" stroke-width="1"/><path d="M6 76H12" stroke="rgb(112 132 144 / 0.055)" stroke-width="1"/><path d="M1122 76H1140" stroke="rgb(112 132 144 / 0.055)" stroke-width="1"/><path d="M1230 132H1248" stroke="rgb(112 132 144 / 0.055)" stroke-width="1"/><path d="M1446 202H1452" stroke="rgb(112 132 144 / 0.055)" stroke-width="1"/><path d="M258 34H276" stroke="rgb(112 132 144 / 0.055)" stroke-width="1"/><path d="M222 160H228" stroke="rgb(112 132 144 / 0.055)" stroke-width="1"/><path d="M1734 90H1752" stroke="rgb(112 132 144 / 0.055)" stroke-width="1"/><path d="M1626 258H1636" stroke="rgb(112 132 144 / 0.055)" stroke-width="1"/><path d="M546 90H556" stroke="rgb(112 132 144 / 0.055)" stroke-width="1"/><path d="M1122 146H1140" stroke="rgb(112 132 144 / 0.055)" stroke-width="1"/><path d="M1230 132H1244" stroke="rgb(112 132 144 / 0.055)" stroke-width="1"/><path d="M1410 76H1424" stroke="rgb(112 132 144 / 0.055)" stroke-width="1"/><path d="M1158 328H1164" stroke="rgb(112 132 144 / 0.055)" stroke-width="1"/><path d="M726 202H736" stroke="rgb(112 132 144 / 0.055)" stroke-width="1"/><path d="M1698 132H1712" stroke="rgb(112 132 144 / 0.055)" stroke-width="1"/><path d="M366 286H380" stroke="rgb(112 132 144 / 0.055)" stroke-width="1"/><path d="M582 188H592" stroke="rgb(112 132 144 / 0.055)" stroke-width="1"/><path d="M1086 20H1104" stroke="rgb(112 132 144 / 0.055)" stroke-width="1"/><path d="M222 48H228" stroke="rgb(112 132 144 / 0.055)" stroke-width="1"/><path d="M510 20H524" stroke="rgb(112 132 144 / 0.055)" stroke-width="1"/><path d="M1770 20H1780" stroke="rgb(112 132 144 / 0.055)" stroke-width="1"/><path d="M618 104H636" stroke="rgb(112 132 144 / 0.055)" stroke-width="1"/><path d="M258 174H268" stroke="rgb(112 132 144 / 0.055)" stroke-width="1"/><path d="M1014 174H1024" stroke="rgb(112 132 144 / 0.055)" stroke-width="1"/><path d="M258 244H264" stroke="rgb(112 132 144 / 0.055)" stroke-width="1"/><path d="M366 76H372" stroke="rgb(112 132 144 / 0.055)" stroke-width="1"/><path d="M1554 132H1568" stroke="rgb(112 132 144 / 0.055)" stroke-width="1"/><path d="M618 174H632" stroke="rgb(112 132 144 / 0.055)" stroke-width="1"/><path d="M546 62H552" stroke="rgb(112 132 144 / 0.055)" stroke-width="1"/><path d="M762 174H780" stroke="rgb(112 132 144 / 0.055)" stroke-width="1"/><path d="M78 328H96" stroke="rgb(112 132 144 / 0.055)" stroke-width="1"/><path d="M654 104H672" stroke="rgb(112 132 144 / 0.055)" stroke-width="1"/><path d="M222 76H236" stroke="rgb(112 132 144 / 0.055)" stroke-width="1"/><path d="M42 216H56" stroke="rgb(112 132 144 / 0.055)" stroke-width="1"/><path d="M258 216H268" stroke="rgb(112 132 144 / 0.055)" stroke-width="1"/><path d="M114 104H128" stroke="rgb(112 132 144 / 0.055)" stroke-width="1"/><path d="M1554 286H1564" stroke="rgb(112 132 144 / 0.055)" stroke-width="1"/><path d="M1878 314H1888" stroke="rgb(112 132 144 / 0.055)" stroke-width="1"/><path d="M1806 188H1816" stroke="rgb(112 132 144 / 0.055)" stroke-width="1"/><path d="M1518 174H1532" stroke="rgb(112 132 144 / 0.055)" stroke-width="1"/><path d="M870 258H880" stroke="rgb(112 132 144 / 0.055)" stroke-width="1"/><path d="M1158 286H1164" stroke="rgb(112 132 144 / 0.055)" stroke-width="1"/><path d="M42 272H48" stroke="rgb(112 132 144 / 0.055)" stroke-width="1"/><path d="M78 62H92" stroke="rgb(112 132 144 / 0.055)" stroke-width="1"/><path d="M150 314H168" stroke="rgb(112 132 144 / 0.055)" stroke-width="1"/><path d="M186 188H192" stroke="rgb(112 132 144 / 0.055)" stroke-width="1"/><path d="M294 188H304" stroke="rgb(112 132 144 / 0.055)" stroke-width="1"/><path d="M258 244H272" stroke="rgb(112 132 144 / 0.055)" stroke-width="1"/><path d="M654 174H664" stroke="rgb(112 132 144 / 0.055)" stroke-width="1"/><path d="M1194 272H1204" stroke="rgb(112 132 144 / 0.055)" stroke-width="1"/><path d="M1597.9 0V360" stroke="rgb(46 211 163 / 0.280)" stroke-width="1.5"/><circle cx="1597.9" cy="120.7" r="4" fill="rgb(46 211 163 / 0.800)"/></svg>